<svg width="48" height="32" viewBox="0 0 48 32" fill="none" xmlns="http://www.w3.org/2000/svg">
<rect x="0.5" y="0.5" width="47" height="31" rx="7.5" fill="white"/>
<path fill-rule="evenodd" clip-rule="evenodd" d="M9.17495 11.2L4.79999 20.8817H10.0374L10.6867 19.338H12.1709L12.8201 20.8817H18.5851V19.7035L19.0988 20.8817H22.0809L22.5946 19.6786V20.8817H34.5841L36.042 19.3781L37.4071 20.8817L43.5652 20.8941L39.1764 16.0679L43.5652 11.2H37.5026L36.0834 12.6758L34.7613 11.2H21.7183L20.5983 13.6989L19.452 11.2H14.2255V12.3381L13.6441 11.2H9.17495ZM27.0789 12.5748H33.9638L36.0696 14.8495L38.2433 12.5748H40.3491L37.1496 16.0665L40.3491 19.5179H38.1478L36.042 17.2169L33.8572 19.5179H27.0789V12.5748ZM28.7791 15.2814V14.012H33.0751L34.9496 16.0402L32.992 18.0795H28.7791V16.695H32.5351V15.2814H28.7791ZM10.1884 12.5748H12.7413L15.6433 19.14V12.5748H18.4399L20.6813 17.282L22.747 12.5748H25.5297V19.522H23.8365L23.8227 14.0782L21.3542 19.522H19.8395L17.3571 14.0782V19.522H13.8738L13.2134 17.9646H9.64568L8.98667 19.5207H7.12034L10.1884 12.5748ZM10.2549 16.5248L11.4303 13.7503L12.6044 16.5248H10.2549Z" fill="#1F72CD"/>
<rect x="0.5" y="0.5" width="47" height="31" rx="7.5" stroke="#CCCCCC"/>
</svg>
