<svg width="48" height="32" viewBox="0 0 48 32" fill="none" xmlns="http://www.w3.org/2000/svg">
<rect x="0.5" y="0.5" width="47" height="31" rx="7.5" fill="white"/>
<path fill-rule="evenodd" clip-rule="evenodd" d="M11.6705 11.7824C12.2985 11.8354 12.9265 11.4646 13.319 10.9945C13.7049 10.5111 13.96 9.86217 13.8946 9.20001C13.3386 9.2265 12.6518 9.57082 12.2593 10.0542C11.8995 10.4714 11.592 11.1468 11.6705 11.7824ZM19.1408 20.3111V9.98798H22.9676C24.9431 9.98798 26.3233 11.3653 26.3233 13.3782C26.3233 15.3912 24.9169 16.7818 22.9152 16.7818H20.7239V20.3111H19.1408ZM13.888 11.9082C13.3348 11.876 12.83 12.0767 12.4223 12.2387C12.1599 12.343 11.9377 12.4314 11.7686 12.4314C11.5789 12.4314 11.3475 12.3383 11.0878 12.2338C10.7474 12.097 10.3582 11.9405 9.95011 11.948C9.01469 11.9612 8.14468 12.4976 7.66716 13.3518C6.68595 15.0601 7.41204 17.5896 8.36055 18.9801C8.82498 19.6688 9.381 20.4236 10.1136 20.3972C10.436 20.3848 10.6678 20.2853 10.9078 20.1822C11.184 20.0635 11.471 19.9403 11.9191 19.9403C12.3516 19.9403 12.626 20.0603 12.8895 20.1756C13.14 20.2851 13.3805 20.3904 13.7376 20.3839C14.4964 20.3707 14.9739 19.6953 15.4383 19.0066C15.9395 18.2675 16.1598 17.5462 16.1932 17.4367C16.1951 17.4305 16.1964 17.4262 16.1971 17.424C16.1963 17.4232 16.1902 17.4204 16.1792 17.4153C16.0117 17.3377 14.7311 16.7442 14.7188 15.1528C14.7065 13.8171 15.7345 13.1403 15.8964 13.0338C15.9062 13.0273 15.9129 13.023 15.9159 13.0207C15.2617 12.0407 14.2413 11.9347 13.888 11.9082ZM29.2147 20.3905C30.209 20.3905 31.1313 19.8807 31.55 19.0728H31.5827V20.3111H33.0479V15.1727C33.0479 13.6828 31.8705 12.7227 30.0585 12.7227C28.3774 12.7227 27.1345 13.6961 27.0887 15.0337H28.5147C28.6325 14.398 29.2147 13.9808 30.0127 13.9808C30.9809 13.9808 31.5238 14.4377 31.5238 15.2787V15.8481L29.5483 15.9673C27.7101 16.0799 26.7159 16.8414 26.7159 18.1657C26.7159 19.5032 27.7429 20.3905 29.2147 20.3905ZM29.6398 19.1655C28.7959 19.1655 28.2595 18.755 28.2595 18.126C28.2595 17.477 28.7763 17.0996 29.764 17.04L31.5237 16.9274V17.5101C31.5237 18.4769 30.7126 19.1655 29.6398 19.1655ZM37.9081 20.715C37.2736 22.5227 36.5475 23.1186 35.0038 23.1186C34.886 23.1186 34.4935 23.1054 34.4019 23.0789V21.8407C34.5001 21.8539 34.7421 21.8672 34.8664 21.8672C35.5663 21.8672 35.9588 21.5692 36.2008 20.7945L36.3447 20.3376L33.6628 12.822H35.3177L37.182 18.9205H37.2148L39.0791 12.822H40.6882L37.9081 20.715ZM20.7237 11.3388H22.5488C23.9225 11.3388 24.7074 12.0804 24.7074 13.3849C24.7074 14.6893 23.9225 15.4376 22.5422 15.4376H20.7237V11.3388Z" fill="black"/>
<rect x="0.5" y="0.5" width="47" height="31" rx="7.5" stroke="#CCCCCC"/>
</svg>
