<svg width="149" height="44" viewBox="0 0 149 44" fill="none" xmlns="http://www.w3.org/2000/svg">
<path d="M90.1793 21.1204V23.6405H88.5997V25.2932H90.1793V30.9087C90.1793 32.8262 91.0468 33.5932 93.229 33.5932C93.6125 33.5932 93.9778 33.5475 94.2973 33.4927V31.8583C94.0234 31.8857 93.8499 31.904 93.5486 31.904C92.5716 31.904 92.1425 31.4474 92.1425 30.4065V25.2932H94.2973V23.6405H92.1425V21.1204H90.1793Z" fill="white"/>
<path d="M99.8566 33.7301C102.76 33.7301 104.541 31.7853 104.541 28.5621C104.541 25.3571 102.751 23.4031 99.8566 23.4031C96.953 23.4031 95.1633 25.3571 95.1633 28.5621C95.1633 31.7853 96.9438 33.7301 99.8566 33.7301ZM99.8566 31.9861C98.1491 31.9861 97.1904 30.7352 97.1904 28.5621C97.1904 26.4072 98.1491 25.1471 99.8566 25.1471C101.555 25.1471 102.523 26.4072 102.523 28.5621C102.523 30.7261 101.555 31.9861 99.8566 31.9861Z" fill="white"/>
<path d="M106.064 33.5384H108.027V27.6672C108.027 26.2702 109.077 25.3297 110.566 25.3297C110.913 25.3297 111.497 25.3937 111.661 25.4484V23.5127C111.451 23.4579 111.077 23.4305 110.785 23.4305C109.488 23.4305 108.383 24.1427 108.1 25.1197H107.954V23.5949H106.064V33.5384Z" fill="white"/>
<path d="M116.536 25.0741C117.988 25.0741 118.937 26.0876 118.983 27.649H113.961C114.07 26.0967 115.084 25.0741 116.536 25.0741ZM118.974 30.8539C118.608 31.63 117.796 32.0592 116.609 32.0592C115.038 32.0592 114.025 30.9543 113.961 29.2104V29.1008H120.982V28.416C120.982 25.2932 119.312 23.4031 116.545 23.4031C113.742 23.4031 111.961 25.421 111.961 28.5986C111.961 31.7761 113.705 33.7301 116.554 33.7301C118.828 33.7301 120.416 32.6344 120.864 30.8539H118.974Z" fill="white"/>
<path d="M77.3054 29.8664C77.4568 32.3081 79.4915 33.8696 82.52 33.8696C85.7566 33.8696 87.7819 32.2324 87.7819 29.6203C87.7819 27.5667 86.6273 26.431 83.826 25.778L82.3212 25.4089C80.542 24.9925 79.8228 24.4341 79.8228 23.4594C79.8228 22.2291 80.9395 21.4246 82.6146 21.4246C84.2045 21.4246 85.3024 22.2101 85.5011 23.4688H87.5642C87.4412 21.1691 85.4159 19.5508 82.643 19.5508C79.6619 19.5508 77.6745 21.1691 77.6745 23.6013C77.6745 25.6077 78.8007 26.8001 81.2707 27.3774L83.031 27.8033C84.8386 28.2291 85.6336 28.8538 85.6336 29.8948C85.6336 31.1062 84.3844 31.9863 82.6809 31.9863C80.8543 31.9863 79.5862 31.1629 79.4064 29.8664H77.3054Z" fill="white"/>
<path d="M56.9693 23.4305C55.618 23.4305 54.4492 24.1062 53.8466 25.2384H53.7005V23.5949H51.8104V36.8438H53.7735V32.0318H53.9287C54.4492 33.0818 55.5723 33.7027 56.9876 33.7027C59.4986 33.7027 61.0965 31.7213 61.0965 28.5621C61.0965 25.4028 59.4986 23.4305 56.9693 23.4305ZM56.4123 31.9405C54.7688 31.9405 53.737 30.6439 53.737 28.5712C53.737 26.4894 54.7688 25.1928 56.4215 25.1928C58.0833 25.1928 59.0785 26.462 59.0785 28.5621C59.0785 30.6713 58.0833 31.9405 56.4123 31.9405Z" fill="white"/>
<path d="M67.9658 23.4305C66.6144 23.4305 65.4457 24.1062 64.843 25.2384H64.6969V23.5949H62.8069V36.8438H64.77V32.0318H64.9252C65.4457 33.0818 66.5688 33.7027 67.9841 33.7027C70.495 33.7027 72.0929 31.7213 72.0929 28.5621C72.0929 25.4028 70.495 23.4305 67.9658 23.4305ZM67.4088 31.9405C65.7653 31.9405 64.7335 30.6439 64.7335 28.5712C64.7335 26.4894 65.7653 25.1928 67.4179 25.1928C69.0798 25.1928 70.075 26.462 70.075 28.5621C70.075 30.6713 69.0798 31.9405 67.4088 31.9405Z" fill="white"/>
<path d="M48.2882 33.5384H50.5406L45.6099 19.882H43.3291L38.3984 33.5384H40.5751L41.8338 29.9137H47.0389L48.2882 33.5384ZM44.3607 22.3615H44.5216L46.4995 28.1345H42.3733L44.3607 22.3615Z" fill="white"/>
<path d="M39.7158 9.58098V16.1689H42.0944C44.0575 16.1689 45.1943 14.9591 45.1943 12.8544C45.1943 10.7817 44.0484 9.58098 42.0944 9.58098H39.7158ZM40.7385 10.5123H41.9803C43.3453 10.5123 44.1534 11.3798 44.1534 12.8681C44.1534 14.3792 43.359 15.2375 41.9803 15.2375H40.7385V10.5123Z" fill="white"/>
<path d="M48.6759 16.2648C50.1277 16.2648 51.018 15.2923 51.018 13.6807C51.018 12.0783 50.1232 11.1013 48.6759 11.1013C47.2241 11.1013 46.3293 12.0783 46.3293 13.6807C46.3293 15.2923 47.2196 16.2648 48.6759 16.2648ZM48.6759 15.3928C47.8222 15.3928 47.3428 14.7673 47.3428 13.6807C47.3428 12.6033 47.8222 11.9733 48.6759 11.9733C49.5251 11.9733 50.009 12.6033 50.009 13.6807C50.009 14.7627 49.5251 15.3928 48.6759 15.3928Z" fill="white"/>
<path d="M58.5993 11.1971H57.6178L56.7321 14.991H56.6545L55.6318 11.1971H54.6913L53.6687 14.991H53.5956L52.7054 11.1971H51.7101L53.0797 16.1689H54.0887L55.1114 12.5074H55.189L56.2162 16.1689H57.2343L58.5993 11.1971Z" fill="white"/>
<path d="M59.7297 16.1689H60.7113V13.2607C60.7113 12.4846 61.1724 12.0007 61.8983 12.0007C62.6242 12.0007 62.9712 12.3979 62.9712 13.1968V16.1689H63.9528V12.9503C63.9528 11.7678 63.341 11.1013 62.2316 11.1013C61.4829 11.1013 60.9898 11.4345 60.7478 11.987H60.6748V11.1971H59.7297V16.1689Z" fill="white"/>
<path d="M65.4986 16.1689H66.4802V9.25684H65.4986V16.1689Z" fill="white"/>
<path d="M70.1718 16.2648C71.6236 16.2648 72.5139 15.2923 72.5139 13.6807C72.5139 12.0783 71.619 11.1013 70.1718 11.1013C68.72 11.1013 67.8252 12.0783 67.8252 13.6807C67.8252 15.2923 68.7154 16.2648 70.1718 16.2648ZM70.1718 15.3928C69.3181 15.3928 68.8387 14.7673 68.8387 13.6807C68.8387 12.6033 69.3181 11.9733 70.1718 11.9733C71.021 11.9733 71.5049 12.6033 71.5049 13.6807C71.5049 14.7627 71.021 15.3928 70.1718 15.3928Z" fill="white"/>
<path d="M75.4385 15.4247C74.9043 15.4247 74.5163 15.1645 74.5163 14.7171C74.5163 14.2788 74.8267 14.046 75.5115 14.0003L76.7259 13.9227V14.3382C76.7259 14.9545 76.1781 15.4247 75.4385 15.4247ZM75.1874 16.2511C75.8402 16.2511 76.3835 15.968 76.6803 15.4704H76.7579V16.1689H77.7029V12.7722C77.7029 11.7222 76.9999 11.1013 75.7535 11.1013C74.6258 11.1013 73.8223 11.6491 73.7219 12.5029H74.6715C74.7811 12.1513 75.16 11.9504 75.7078 11.9504C76.379 11.9504 76.7259 12.2472 76.7259 12.7722V13.2014L75.3791 13.279C74.1967 13.352 73.5301 13.8679 73.5301 14.7627C73.5301 15.6713 74.2286 16.2511 75.1874 16.2511Z" fill="white"/>
<path d="M81.0339 16.2511C81.7187 16.2511 82.2985 15.9269 82.5952 15.3836H82.6729V16.1689H83.6133V9.25684H82.6318V11.987H82.5587C82.2894 11.4391 81.7141 11.115 81.0339 11.115C79.7784 11.115 78.9703 12.1102 78.9703 13.6807C78.9703 15.2558 79.7692 16.2511 81.0339 16.2511ZM81.3124 11.9961C82.1341 11.9961 82.65 12.649 82.65 13.6853C82.65 14.7262 82.1387 15.3699 81.3124 15.3699C80.4815 15.3699 79.9838 14.7354 79.9838 13.6807C79.9838 12.6353 80.486 11.9961 81.3124 11.9961Z" fill="white"/>
<path d="M89.9785 16.2648C91.4303 16.2648 92.3205 15.2923 92.3205 13.6807C92.3205 12.0783 91.4257 11.1013 89.9785 11.1013C88.5267 11.1013 87.6318 12.0783 87.6318 13.6807C87.6318 15.2923 88.5221 16.2648 89.9785 16.2648ZM89.9785 15.3928C89.1247 15.3928 88.6454 14.7673 88.6454 13.6807C88.6454 12.6033 89.1247 11.9733 89.9785 11.9733C90.8276 11.9733 91.3116 12.6033 91.3116 13.6807C91.3116 14.7627 90.8276 15.3928 89.9785 15.3928Z" fill="white"/>
<path d="M93.6199 16.1689H94.6014V13.2607C94.6014 12.4846 95.0625 12.0007 95.7884 12.0007C96.5143 12.0007 96.8613 12.3979 96.8613 13.1968V16.1689H97.8429V12.9503C97.8429 11.7678 97.2311 11.1013 96.1217 11.1013C95.373 11.1013 94.8799 11.4345 94.6379 11.987H94.5649V11.1971H93.6199V16.1689Z" fill="white"/>
<path d="M102.364 9.95991V11.22H101.574V12.0463H102.364V14.8541C102.364 15.8128 102.797 16.1963 103.888 16.1963C104.08 16.1963 104.263 16.1735 104.423 16.1461V15.3289C104.286 15.3426 104.199 15.3517 104.048 15.3517C103.56 15.3517 103.345 15.1234 103.345 14.603V12.0463H104.423V11.22H103.345V9.95991H102.364Z" fill="white"/>
<path d="M105.74 16.1689H106.722V13.2653C106.722 12.512 107.169 12.0052 107.973 12.0052C108.667 12.0052 109.036 12.407 109.036 13.2014V16.1689H110.018V12.9594C110.018 11.777 109.365 11.1058 108.306 11.1058C107.557 11.1058 107.032 11.4391 106.79 11.9961H106.713V9.25684H105.74V16.1689Z" fill="white"/>
<path d="M113.559 11.9367C114.285 11.9367 114.76 12.4435 114.782 13.2242H112.271C112.326 12.4481 112.833 11.9367 113.559 11.9367ZM114.778 14.8267C114.595 15.2147 114.189 15.4293 113.595 15.4293C112.81 15.4293 112.303 14.8769 112.271 14.0049V13.9501H115.782V13.6077C115.782 12.0463 114.947 11.1013 113.563 11.1013C112.162 11.1013 111.272 12.1102 111.272 13.699C111.272 15.2878 112.144 16.2648 113.568 16.2648C114.705 16.2648 115.499 15.7169 115.723 14.8267H114.778Z" fill="white"/>
<path d="M27.7473 22.3302C27.7711 20.4811 28.7641 18.7314 30.3395 17.7629C29.3457 16.3436 27.681 15.4437 25.9492 15.3895C24.102 15.1956 22.3113 16.4948 21.37 16.4948C20.4105 16.4948 18.9613 15.4087 17.4007 15.4408C15.3665 15.5066 13.4701 16.6631 12.4804 18.4415C10.353 22.1248 11.9399 27.5379 13.9778 30.5152C14.9974 31.9731 16.189 33.6016 17.7482 33.5438C19.2739 33.4805 19.8438 32.5709 21.6855 32.5709C23.5101 32.5709 24.0448 33.5438 25.6356 33.5071C27.2728 33.4805 28.3043 32.0427 29.2882 30.571C30.0207 29.5322 30.5844 28.3841 30.9584 27.1693C29.0344 26.3555 27.7495 24.4192 27.7473 22.3302Z" fill="white"/>
<path d="M24.7424 13.4315C25.6351 12.3598 26.0749 10.9825 25.9684 9.5918C24.6046 9.73504 23.3448 10.3869 22.4401 11.4174C21.5553 12.4242 21.0949 13.7774 21.182 15.1149C22.5463 15.1289 23.8875 14.4948 24.7424 13.4315Z" fill="white"/>
<rect x="1" y="0.5" width="147.5" height="43" rx="4.5" stroke="#9D9D9D"/>
</svg>
