<svg width="149" height="44" viewBox="0 0 149 44" fill="none" xmlns="http://www.w3.org/2000/svg">
<path d="M74.9506 23.9264C72.3634 23.9264 70.2547 25.8943 70.2547 28.6047C70.2547 31.2986 72.3634 33.283 74.9506 33.283C77.5389 33.283 79.6476 31.2986 79.6476 28.6047C79.6465 25.8943 77.5378 23.9264 74.9506 23.9264ZM74.9506 31.4416C73.5327 31.4416 72.3106 30.2723 72.3106 28.6058C72.3106 26.9217 73.5338 25.77 74.9506 25.77C76.3685 25.77 77.5906 26.9217 77.5906 28.6058C77.5906 30.2712 76.3685 31.4416 74.9506 31.4416ZM64.7052 23.9264C62.118 23.9264 60.0093 25.8943 60.0093 28.6047C60.0093 31.2986 62.118 33.283 64.7052 33.283C67.2935 33.283 69.4022 31.2986 69.4022 28.6047C69.4022 25.8943 67.2935 23.9264 64.7052 23.9264ZM64.7052 31.4416C63.2873 31.4416 62.0652 30.2723 62.0652 28.6058C62.0652 26.9217 63.2884 25.77 64.7052 25.77C66.1231 25.77 67.3452 26.9217 67.3452 28.6058C67.3463 30.2712 66.1231 31.4416 64.7052 31.4416ZM52.5194 25.363V27.3474H57.2692C57.1273 28.4639 56.7555 29.279 56.1879 29.8455C55.4971 30.5363 54.4158 31.2986 52.5194 31.2986C49.5956 31.2986 47.3098 28.9413 47.3098 26.0175C47.3098 23.0937 49.5956 20.7364 52.5194 20.7364C54.0968 20.7364 55.2485 21.3568 56.0988 22.1543L57.4991 20.754C56.3111 19.6199 54.7348 18.752 52.5194 18.752C48.5143 18.752 45.1472 22.0124 45.1472 26.0175C45.1472 30.0226 48.5143 33.283 52.5194 33.283C54.6809 33.283 56.3122 32.5735 57.5871 31.2447C58.8983 29.9335 59.3064 28.0899 59.3064 26.6016C59.3064 26.1418 59.2712 25.7161 59.1997 25.3619H52.5194V25.363ZM102.358 26.9041C101.969 25.8591 100.781 23.9264 98.3531 23.9264C95.943 23.9264 93.9399 25.8228 93.9399 28.6047C93.9399 31.2271 95.9254 33.283 98.583 33.283C100.727 33.283 101.968 31.9718 102.483 31.2095L100.888 30.1458C100.356 30.9257 99.6291 31.4394 98.583 31.4394C97.538 31.4394 96.7933 30.9609 96.3148 30.0215L102.571 27.4343L102.358 26.9041ZM95.9782 28.4639C95.9254 26.6555 97.3785 25.7348 98.4246 25.7348C99.2397 25.7348 99.9305 26.1429 100.162 26.727L95.9782 28.4639ZM90.8929 33.0003H92.9477V19.2492H90.8929V33.0003ZM87.5247 24.9725H87.4543C86.9934 24.4225 86.1068 23.9264 84.9914 23.9264C82.6517 23.9264 80.5078 25.9823 80.5078 28.6234C80.5078 31.2458 82.6517 33.2841 84.9914 33.2841C86.1079 33.2841 86.9934 32.788 87.4543 32.2215H87.5247V32.8947C87.5247 34.6844 86.5677 35.6414 85.0266 35.6414C83.7682 35.6414 82.9883 34.7383 82.6693 33.976L80.8796 34.7207C81.3933 35.9604 82.7573 37.485 85.0266 37.485C87.4367 37.485 89.475 36.0671 89.475 32.6109V24.2113H87.5258V24.9725H87.5247ZM85.1685 31.4416C83.7506 31.4416 82.5637 30.2536 82.5637 28.6234C82.5637 26.9745 83.7506 25.77 85.1685 25.77C86.5677 25.77 87.6666 26.9745 87.6666 28.6234C87.6666 30.2536 86.5677 31.4416 85.1685 31.4416ZM111.988 19.2492H107.07V33.0003H109.121V27.7907H111.987C114.261 27.7907 116.499 26.144 116.499 23.5205C116.499 20.897 114.262 19.2492 111.988 19.2492ZM112.04 25.8767H109.121V21.1632H112.04C113.575 21.1632 114.446 22.4337 114.446 23.5205C114.446 24.5853 113.575 25.8767 112.04 25.8767ZM124.726 23.9022C123.24 23.9022 121.701 24.5567 121.064 26.0076L122.885 26.7677C123.275 26.0076 124.001 25.759 124.761 25.759C125.822 25.759 126.901 26.3959 126.919 27.5278V27.6697C126.547 27.4574 125.751 27.1395 124.778 27.1395C122.815 27.1395 120.815 28.2186 120.815 30.2349C120.815 32.0752 122.426 33.2599 124.23 33.2599C125.609 33.2599 126.37 32.6406 126.848 31.9146H126.918V32.9761H128.9V27.7038C128.901 25.264 127.077 23.9022 124.726 23.9022ZM124.477 31.4383C123.806 31.4383 122.868 31.1017 122.868 30.2701C122.868 29.2086 124.036 28.8016 125.045 28.8016C125.946 28.8016 126.371 28.9963 126.919 29.2614C126.76 30.5363 125.663 31.4383 124.477 31.4383ZM136.118 24.2025L133.765 30.1645H133.695L131.253 24.2025H129.042L132.704 32.535L130.616 37.1704H132.757L138.401 24.2025H136.118ZM117.632 33.0003H119.683V19.2492H117.632V33.0003Z" fill="white"/>
<path d="M52.1599 11.2675C52.1599 12.1893 51.8871 12.923 51.3404 13.4708C50.72 14.122 49.9104 14.4476 48.916 14.4476C47.9634 14.4476 47.1527 14.1176 46.4872 13.4576C45.8206 12.7965 45.4873 11.9781 45.4873 11.0013C45.4873 10.0234 45.8206 9.20501 46.4872 8.54501C47.1527 7.88391 47.9634 7.55391 48.916 7.55391C49.389 7.55391 49.8411 7.64631 50.2701 7.83001C50.7002 8.01481 51.0445 8.26011 51.3019 8.56701L50.7222 9.14781C50.2855 8.62531 49.6838 8.36461 48.9149 8.36461C48.2197 8.36461 47.6191 8.60881 47.112 9.09721C46.6049 9.58561 46.3519 10.2203 46.3519 11.0002C46.3519 11.7801 46.6049 12.4148 47.112 12.9032C47.6191 13.3916 48.2197 13.6358 48.9149 13.6358C49.6519 13.6358 50.2668 13.3905 50.7585 12.8988C51.0775 12.5787 51.2623 12.1332 51.3118 11.5623H48.9149V10.7692H52.1126C52.1456 10.9419 52.1599 11.108 52.1599 11.2675Z" fill="white"/>
<path d="M57.231 8.51097H54.2258V10.6032H56.9362V11.3963H54.2258V13.4885H57.231V14.3003H53.3777V7.70027H57.231V8.51097Z" fill="white"/>
<path d="M60.807 14.3003H59.9589V8.51097H58.1153V7.70027H62.6506V8.51097H60.807V14.3003Z" fill="white"/>
<path d="M65.9318 14.3003V7.70027H66.7799V14.3003H65.9318Z" fill="white"/>
<path d="M70.541 14.3003H69.6929V8.51097H67.8493V7.70027H72.3846V8.51097H70.541V14.3003Z" fill="white"/>
<path d="M80.9699 13.4478C80.3209 14.1144 79.5146 14.4477 78.5499 14.4477C77.5852 14.4477 76.7789 14.1144 76.131 13.4478C75.482 12.7812 75.1586 11.965 75.1586 11.0003C75.1586 10.0356 75.482 9.21936 76.131 8.55276C76.7789 7.88616 77.5852 7.55176 78.5499 7.55176C79.5091 7.55176 80.3143 7.88726 80.9655 8.55716C81.6167 9.22706 81.9423 10.0411 81.9423 11.0003C81.9423 11.965 81.6178 12.7812 80.9699 13.4478ZM76.7569 12.8945C77.2453 13.3895 77.8426 13.6359 78.5499 13.6359C79.2572 13.6359 79.8556 13.3884 80.3429 12.8945C80.8313 12.3995 81.0766 11.7681 81.0766 11.0003C81.0766 10.2325 80.8313 9.60106 80.3429 9.10606C79.8556 8.61106 79.2572 8.36466 78.5499 8.36466C77.8426 8.36466 77.2453 8.61216 76.7569 9.10606C76.2696 9.60106 76.0243 10.2325 76.0243 11.0003C76.0243 11.7681 76.2696 12.3995 76.7569 12.8945Z" fill="white"/>
<path d="M83.1325 14.3003V7.70027H84.1643L87.3719 12.834H87.4082L87.3719 11.5624V7.70027H88.22V14.3003H87.3345L83.9784 8.91687H83.9421L83.9784 10.1885V14.3003H83.1325Z" fill="white"/>
<path d="M52.1599 11.2675C52.1599 12.1893 51.8871 12.923 51.3404 13.4708C50.72 14.122 49.9104 14.4476 48.916 14.4476C47.9634 14.4476 47.1527 14.1176 46.4872 13.4576C45.8206 12.7965 45.4873 11.9781 45.4873 11.0013C45.4873 10.0234 45.8206 9.20501 46.4872 8.54501C47.1527 7.88391 47.9634 7.55391 48.916 7.55391C49.389 7.55391 49.8411 7.64631 50.2701 7.83001C50.7002 8.01481 51.0445 8.26011 51.3019 8.56701L50.7222 9.14781C50.2855 8.62531 49.6838 8.36461 48.9149 8.36461C48.2197 8.36461 47.6191 8.60881 47.112 9.09721C46.6049 9.58561 46.3519 10.2203 46.3519 11.0002C46.3519 11.7801 46.6049 12.4148 47.112 12.9032C47.6191 13.3916 48.2197 13.6358 48.9149 13.6358C49.6519 13.6358 50.2668 13.3905 50.7585 12.8988C51.0775 12.5787 51.2623 12.1332 51.3118 11.5623H48.9149V10.7692H52.1126C52.1456 10.9419 52.1599 11.108 52.1599 11.2675Z" stroke="white" stroke-width="0.2" stroke-miterlimit="10"/>
<path d="M57.231 8.51097H54.2258V10.6032H56.9362V11.3963H54.2258V13.4885H57.231V14.3003H53.3777V7.70027H57.231V8.51097Z" stroke="white" stroke-width="0.2" stroke-miterlimit="10"/>
<path d="M60.807 14.3003H59.9589V8.51097H58.1153V7.70027H62.6506V8.51097H60.807V14.3003Z" stroke="white" stroke-width="0.2" stroke-miterlimit="10"/>
<path d="M65.9318 14.3003V7.70027H66.7799V14.3003H65.9318Z" stroke="white" stroke-width="0.2" stroke-miterlimit="10"/>
<path d="M70.541 14.3003H69.6929V8.51097H67.8493V7.70027H72.3846V8.51097H70.541V14.3003Z" stroke="white" stroke-width="0.2" stroke-miterlimit="10"/>
<path d="M80.9699 13.4478C80.3209 14.1144 79.5146 14.4477 78.5499 14.4477C77.5852 14.4477 76.7789 14.1144 76.131 13.4478C75.482 12.7812 75.1586 11.965 75.1586 11.0003C75.1586 10.0356 75.482 9.21936 76.131 8.55276C76.7789 7.88616 77.5852 7.55176 78.5499 7.55176C79.5091 7.55176 80.3143 7.88726 80.9655 8.55716C81.6167 9.22706 81.9423 10.0411 81.9423 11.0003C81.9423 11.965 81.6178 12.7812 80.9699 13.4478ZM76.7569 12.8945C77.2453 13.3895 77.8426 13.6359 78.5499 13.6359C79.2572 13.6359 79.8556 13.3884 80.3429 12.8945C80.8313 12.3995 81.0766 11.7681 81.0766 11.0003C81.0766 10.2325 80.8313 9.60106 80.3429 9.10606C79.8556 8.61106 79.2572 8.36466 78.5499 8.36466C77.8426 8.36466 77.2453 8.61216 76.7569 9.10606C76.2696 9.60106 76.0243 10.2325 76.0243 11.0003C76.0243 11.7681 76.2696 12.3995 76.7569 12.8945Z" stroke="white" stroke-width="0.2" stroke-miterlimit="10"/>
<path d="M83.1325 14.3003V7.70027H84.1643L87.3719 12.834H87.4082L87.3719 11.5624V7.70027H88.22V14.3003H87.3345L83.9784 8.91687H83.9421L83.9784 10.1885V14.3003H83.1325Z" stroke="white" stroke-width="0.2" stroke-miterlimit="10"/>
<g filter="url(#filter0_ii_1154_31077)">
<path d="M11.4795 8.29124C11.1594 8.63004 10.9702 9.15584 10.9702 9.83674V34.1643C10.9702 34.8463 11.1594 35.371 11.4795 35.7098L11.5609 35.789L25.1888 22.1611V22.0005V21.8399L11.5609 8.21094L11.4795 8.29124Z" fill="url(#paint0_linear_1154_31077)"/>
<path d="M29.7311 26.7052L25.1892 22.1611V22.0005V21.8399L29.7322 17.2969L29.8345 17.3552L35.2168 20.4132C36.7535 21.2866 36.7535 22.7155 35.2168 23.59L29.8345 26.648L29.7311 26.7052Z" fill="url(#paint1_linear_1154_31077)"/>
<g filter="url(#filter1_i_1154_31077)">
<path d="M29.8348 26.6474L25.1884 22.001L11.4802 35.7103C11.9862 36.2471 12.8233 36.3131 13.766 35.7785L29.8348 26.6474Z" fill="url(#paint2_linear_1154_31077)"/>
</g>
<path d="M29.8348 17.3542L13.766 8.22417C12.8233 7.68847 11.9862 7.75558 11.4802 8.29238L25.1895 22.0017L29.8348 17.3542Z" fill="url(#paint3_linear_1154_31077)"/>
</g>
<rect x="0.5" y="0.5" width="147.5" height="43" rx="4.5" stroke="#9D9D9D"/>
<defs>
<filter id="filter0_ii_1154_31077" x="10.9702" y="7.85449" width="25.3992" height="28.293" filterUnits="userSpaceOnUse" color-interpolation-filters="sRGB">
<feFlood flood-opacity="0" result="BackgroundImageFix"/>
<feBlend mode="normal" in="SourceGraphic" in2="BackgroundImageFix" result="shape"/>
<feColorMatrix in="SourceAlpha" type="matrix" values="0 0 0 0 0 0 0 0 0 0 0 0 0 0 0 0 0 0 127 0" result="hardAlpha"/>
<feOffset dy="-0.15"/>
<feComposite in2="hardAlpha" operator="arithmetic" k2="-1" k3="1"/>
<feColorMatrix type="matrix" values="0 0 0 0 0 0 0 0 0 0 0 0 0 0 0 0 0 0 0.12 0"/>
<feBlend mode="normal" in2="shape" result="effect1_innerShadow_1154_31077"/>
<feColorMatrix in="SourceAlpha" type="matrix" values="0 0 0 0 0 0 0 0 0 0 0 0 0 0 0 0 0 0 127 0" result="hardAlpha"/>
<feOffset dy="0.15"/>
<feComposite in2="hardAlpha" operator="arithmetic" k2="-1" k3="1"/>
<feColorMatrix type="matrix" values="0 0 0 0 1 0 0 0 0 1 0 0 0 0 1 0 0 0 0.25 0"/>
<feBlend mode="normal" in2="effect1_innerShadow_1154_31077" result="effect2_innerShadow_1154_31077"/>
</filter>
<filter id="filter1_i_1154_31077" x="11.4802" y="22.001" width="18.3545" height="14.1465" filterUnits="userSpaceOnUse" color-interpolation-filters="sRGB">
<feFlood flood-opacity="0" result="BackgroundImageFix"/>
<feBlend mode="normal" in="SourceGraphic" in2="BackgroundImageFix" result="shape"/>
<feColorMatrix in="SourceAlpha" type="matrix" values="0 0 0 0 0 0 0 0 0 0 0 0 0 0 0 0 0 0 127 0" result="hardAlpha"/>
<feOffset dy="-0.15"/>
<feComposite in2="hardAlpha" operator="arithmetic" k2="-1" k3="1"/>
<feColorMatrix type="matrix" values="0 0 0 0 0 0 0 0 0 0 0 0 0 0 0 0 0 0 0.08 0"/>
<feBlend mode="normal" in2="shape" result="effect1_innerShadow_1154_31077"/>
</filter>
<linearGradient id="paint0_linear_1154_31077" x1="23.9808" y1="9.57934" x2="5.5206" y2="28.0395" gradientUnits="userSpaceOnUse">
<stop stop-color="#00A0FF"/>
<stop offset="0.0066" stop-color="#00A1FF"/>
<stop offset="0.2601" stop-color="#00BEFF"/>
<stop offset="0.5122" stop-color="#00D2FF"/>
<stop offset="0.7604" stop-color="#00DFFF"/>
<stop offset="1" stop-color="#00E3FF"/>
</linearGradient>
<linearGradient id="paint1_linear_1154_31077" x1="37.2172" y1="22.0005" x2="10.6017" y2="22.0005" gradientUnits="userSpaceOnUse">
<stop stop-color="#FFE000"/>
<stop offset="0.4087" stop-color="#FFBD00"/>
<stop offset="0.7754" stop-color="#FFA500"/>
<stop offset="1" stop-color="#FF9C00"/>
</linearGradient>
<linearGradient id="paint2_linear_1154_31077" x1="27.3115" y1="24.5243" x2="2.27719" y2="49.5586" gradientUnits="userSpaceOnUse">
<stop stop-color="#FF3A44"/>
<stop offset="1" stop-color="#C31162"/>
</linearGradient>
<linearGradient id="paint3_linear_1154_31077" x1="8.02776" y1="0.193956" x2="19.2063" y2="11.3725" gradientUnits="userSpaceOnUse">
<stop stop-color="#32A071"/>
<stop offset="0.0685" stop-color="#2DA771"/>
<stop offset="0.4762" stop-color="#15CF74"/>
<stop offset="0.8009" stop-color="#06E775"/>
<stop offset="1" stop-color="#00F076"/>
</linearGradient>
</defs>
</svg>
