<svg width="48" height="32" viewBox="0 0 48 32" fill="none" xmlns="http://www.w3.org/2000/svg">
<rect x="0.5" y="0.5" width="47" height="31" rx="7.5" fill="white"/>
<path d="M32.4986 10.4935C31.9075 10.259 30.9698 10 29.8103 10C26.8504 10 24.7661 11.5784 24.7533 13.835C24.7287 15.4999 26.2456 16.4246 27.3802 16.9797C28.5398 17.547 28.934 17.9172 28.934 18.4229C28.9222 19.1994 27.9969 19.5574 27.134 19.5574C25.9373 19.5574 25.2962 19.3729 24.3218 18.9408L23.9271 18.7556L23.5077 21.3577C24.2106 21.678 25.5058 21.9622 26.8504 21.9746C29.9954 21.9746 32.0428 20.4207 32.0671 18.0159C32.0791 16.6963 31.2781 15.6852 29.5512 14.859C28.5029 14.3286 27.8609 13.971 27.8609 13.4283C27.8732 12.935 28.4039 12.4297 29.5873 12.4297C30.5617 12.4049 31.2776 12.6391 31.8199 12.8735L32.091 12.9966L32.4986 10.4935Z" fill="#3362AB"/>
<path d="M21.6333 21.8019H18.636L20.5107 10.2101H23.5078L21.6333 21.8019Z" fill="#3362AB"/>
<path fill-rule="evenodd" clip-rule="evenodd" d="M40.182 10.2101H37.8636C37.1487 10.2101 36.6055 10.4196 36.297 11.1719L31.845 21.8017H34.9899C34.9899 21.8017 35.5077 20.371 35.619 20.0629H39.4672C39.5532 20.4698 39.8248 21.8017 39.8248 21.8017H42.6L40.182 10.2101ZM36.4822 17.6953C36.7291 17.0294 37.6789 14.452 37.6789 14.452C37.6739 14.462 37.7125 14.3549 37.7701 14.1952L37.7708 14.1933L37.7713 14.192C37.8573 13.9535 37.985 13.5995 38.0732 13.3423L38.2827 14.3411C38.2827 14.3411 38.8503 17.1158 38.9735 17.6953H36.4822Z" fill="#3362AB"/>
<path d="M16.1326 10.2101L13.1973 18.1146L12.8766 16.5115L12.8763 16.5105L11.8282 11.1845C11.6557 10.4442 11.1253 10.2345 10.4716 10.2101H5.64934L5.60001 10.4443C6.77615 10.7451 7.8281 11.1785 8.74982 11.7174L11.4213 21.7896H14.5908L19.302 10.2101H16.1326Z" fill="#3362AB"/>
<rect x="0.5" y="0.5" width="47" height="31" rx="7.5" stroke="#CCCCCC"/>
</svg>
