<svg width="76" height="56" viewBox="0 0 76 56" fill="none" xmlns="http://www.w3.org/2000/svg">
<path d="M75.7148 27.8237C75.7148 40.4879 60.0748 50.7537 40.7851 50.7537C21.4921 50.7537 5.854 40.488 5.854 27.8237C5.854 15.1589 21.4921 4.89062 40.7851 4.89062C60.0749 4.89063 75.7148 15.1589 75.7148 27.8237Z" fill="#231F20"/>
<path d="M74.2583 27.8235C74.2583 39.6924 59.2717 49.3168 40.7849 49.3168C22.2955 49.3168 7.31006 39.6924 7.31006 27.8235C7.31006 15.951 22.2954 6.3291 40.7849 6.3291C59.2717 6.3291 74.2583 15.951 74.2583 27.8235Z" fill="#E20A03"/>
<path d="M56.6594 27.669C51.5096 17.5524 47.0281 7.67042 39.897 7.67042C20.5672 7.67042 7.65771 17.8592 7.65771 27.6691C7.65771 37.4797 20.5672 47.6659 39.897 47.6659C47.0281 47.6658 51.5096 37.7845 56.6594 27.669ZM61.6111 10.3455H68.3945L73.5482 10.3443L74.2398 10.3455V22.3396C73.5844 20.7041 72.6334 19.1414 71.4268 17.679C69.187 20.2353 67.1653 23.777 65.142 27.6691C67.1653 31.5599 69.187 35.1023 71.4268 37.6579C72.6335 36.1938 73.5844 34.632 74.2398 32.9948V44.8122H61.9767C63.3862 44.1226 64.7062 43.3629 65.9254 42.5444C64.1483 40.5485 62.5384 38.2125 61.0383 35.7169C55.8897 45.6041 49.8813 55.0714 39.897 55.0714C19.4735 55.0714 0.158691 44.0358 0.158691 27.6691C0.158691 11.3004 19.4736 0.263672 39.897 0.263672C46.3211 0.263672 51.0996 4.18502 55.0625 9.61674C52.4383 9.61674 52.7821 9.61924 55.0664 9.62188C57.2601 12.6276 59.203 16.0974 61.0383 19.6196C62.5382 17.1236 64.1482 14.7927 65.9254 12.7907C64.6031 11.9044 63.1566 11.0862 61.6111 10.3455Z" fill="#231F20"/>
<path d="M53.9629 27.4484C49.4103 18.5069 45.452 9.77062 39.1488 9.77062C22.0623 9.77062 10.6512 18.7764 10.6512 27.4484C10.6512 36.1164 22.0623 45.1241 39.1488 45.1241C45.452 45.1241 49.4103 36.389 53.9629 27.4484ZM58.3405 12.1362L64.3374 12.1348H68.8927L69.5009 12.1362V22.7374C68.9237 21.2892 68.0829 19.9113 67.0169 18.6173C65.0389 20.8775 63.2521 24.0074 61.4606 27.4483C63.2521 30.8872 65.039 34.0171 67.0169 36.2785C68.0829 34.982 68.9238 33.6015 69.5009 32.1579V42.6011H58.6662C59.9087 41.9909 61.0785 41.3196 62.1546 40.5985C60.5865 38.8308 59.16 36.7654 57.8339 34.5601C53.2814 43.3009 47.9728 51.6665 39.1488 51.6665C21.0965 51.6665 4.02637 41.9158 4.02637 27.4483C4.02637 12.9794 21.0965 3.22363 39.1488 3.22363C44.8265 3.22363 49.0515 6.68941 52.5536 11.4882C50.2343 11.4892 50.5363 11.4912 52.5572 11.4949C54.4943 14.1536 56.2113 17.2191 57.8337 20.331C59.1599 18.1277 60.5863 16.063 62.1545 14.2973C60.9828 13.5128 59.7067 12.7878 58.3405 12.1362Z" fill="white"/>
<path d="M50.9681 22.5735C49.7776 19.6183 48.2676 16.5116 45.9597 13.8911C44.6448 12.6668 42.9414 12.1722 41.3958 12.0483C40.653 11.9881 39.8843 11.9955 39.126 12.0401C38.7458 12.0625 38.365 12.0945 37.9899 12.1307C37.7215 12.1365 37.4549 12.1447 37.1844 12.1615C36.4817 12.2049 35.7801 12.2757 35.1161 12.3432C33.4461 12.5194 31.6826 12.8764 30.0327 13.5119C29.8737 13.5897 29.7236 13.6723 29.5788 13.7558L29.0422 13.8805L29.1748 13.5177L26.3792 14.1686C20.3028 15.6035 13.6616 19.1439 12.388 26.2532L12.3743 26.3383L12.3667 26.4273C12.1173 30.2219 13.6792 33.6948 16.6394 36.0226C18.1167 37.0387 19.7431 37.7884 21.3282 38.3757C22.8702 38.9403 24.4647 39.3946 26.0366 39.8738L28.7853 40.705L28.5828 39.9361L30.7281 40.586L30.6486 40.2966C34.4258 41.5877 38.4596 42.185 42.6189 41.7716C43.3348 41.7546 44.0539 41.71 44.7742 41.6318L45.8678 41.5163L46.1918 40.4686C46.4825 39.533 46.7975 38.5818 46.9925 37.6283C47.2034 36.6071 47.3091 35.4907 47.0883 34.336L46.882 33.2464L45.7278 33.1983C44.8955 33.16 43.8864 33.1872 42.8346 33.1849C42.026 33.1836 41.1905 33.1617 40.3985 33.067C40.5799 33.0536 40.7634 33.0364 40.9474 33.0181C42.7426 32.9718 44.611 32.7607 46.4801 32.1947C46.8745 32.0668 47.2883 31.9329 47.6806 31.7855C48.1214 31.6158 48.551 31.4328 48.9542 31.2112C49.8169 30.7418 50.7225 29.9808 51.2971 28.917C52.2818 26.5531 51.6059 24.2497 50.9681 22.5735ZM38.0263 23.4088C37.7892 23.4007 37.5185 23.393 37.2464 23.3712C37.0512 23.3517 36.823 23.3022 36.6692 23.2594C36.6666 22.3266 36.6516 21.3984 36.6391 20.4524C36.7361 20.4009 36.9012 20.3421 37.1558 20.2945C37.6259 20.29 38.0626 20.2875 38.4081 20.2537C38.4403 20.2501 38.4645 20.2431 38.4855 20.2355C38.7594 20.8578 38.8914 21.5263 38.9807 22.3159C39.0201 22.6744 39.0452 23.0358 39.0703 23.3968C38.7202 23.4088 38.3739 23.4139 38.0263 23.4088ZM22.7249 28.8911C21.5107 28.4687 20.8066 27.8152 20.6515 26.6019C20.7285 26.1308 21.1111 25.6489 22.061 25.1833C23.0083 24.7703 24.0101 24.538 25.078 24.4128C25.2031 24.4128 25.3301 24.41 25.4555 24.41C25.3137 26.0937 25.3237 27.7608 25.3792 29.3736C24.4163 29.298 23.5048 29.1618 22.7249 28.8911Z" fill="#231F20"/>
<path d="M26.553 38.3935C25.9184 36.0306 25.6488 33.5891 25.6018 31.1258C22.1835 31.0847 17.5226 30.9005 17.1369 26.7659C17.225 25.3909 18.2631 24.4819 19.4886 23.894C21.5169 23.0075 23.6988 22.8501 25.88 22.8663C26.1422 21.8269 25.8908 20.8136 25.8152 19.7814C25.7708 18.3615 26.2472 17.0061 26.7242 15.6689C20.8254 17.075 15.0397 20.3688 13.9287 26.505C13.7067 29.7716 15.0066 32.7242 17.5815 34.7489C20.262 36.5988 23.4515 37.4454 26.553 38.3935Z" fill="white"/>
<path d="M33.1357 20.2108C33.1245 20.2955 33.1145 20.3781 33.1047 20.4641C33.0985 20.3806 33.097 20.298 33.097 20.2136C33.0733 20.4391 33.0428 20.9058 33.1047 20.4641C33.1357 21.5524 33.1567 22.6384 33.1579 23.7269C33.2922 24.9997 34.9074 25.0215 35.9715 25.0521C37.5604 25.0747 39.151 24.9169 40.7437 24.8799C40.585 23.0261 40.6706 21.1225 39.8527 19.4032C39.505 18.7392 39.0444 18.6382 38.2721 18.7426C36.782 18.8949 33.7042 18.4043 33.1357 20.2108ZM42.7802 40.2496C38.7723 40.6694 34.8923 40.1078 31.2014 38.8319C29.7038 38.2279 28.8984 36.9608 28.3305 35.5477C27.6047 33.7319 27.058 31.8441 26.9588 29.8647C26.8405 26.8066 26.8506 23.7254 27.6628 20.717C28.23 18.5456 28.2325 16.0769 30.6509 14.912C32.1237 14.3437 33.6741 14.0328 35.2449 13.8629C37.8172 13.5991 40.8869 13.2471 42.8356 15.0585C44.9861 17.5009 46.3741 20.3692 47.5522 23.2886C48.1884 24.9573 48.6807 26.7005 47.9425 28.4853C47.1878 29.8896 45.6207 30.4051 44.1469 30.8779C40.7092 31.9146 37.2153 31.6334 33.745 31.4398C34.4035 35.5755 40.3629 34.6902 43.6216 34.8249C43.9708 36.6409 43.3259 38.4698 42.7802 40.2496Z" fill="white"/>
</svg>
