<svg width="121" height="81" viewBox="0 0 121 81" fill="none" xmlns="http://www.w3.org/2000/svg">
<path d="M113 0H8C3.58172 0 0 3.58173 0 8V72.6675C0 77.0858 3.58172 80.6675 8 80.6675H113C117.418 80.6675 121 77.0858 121 72.6675V8C121 3.58172 117.418 0 113 0Z" fill="#338AF3"/>
<path d="M40.3325 0H8C3.58172 0 0 3.58173 0 8V72.6675C0 77.0858 3.58171 80.6675 7.99999 80.6675H40.3325V0Z" fill="#F0F0F0"/>
<path d="M113 0H80.6675V80.6675H113C117.418 80.6675 121 77.0858 121 72.6675V8C121 3.58172 117.418 0 113 0Z" fill="#FFDA44"/>
</svg>
